<svg width="161" height="52" viewBox="0 0 161 52" fill="none" xmlns="http://www.w3.org/2000/svg">
<path fill-rule="evenodd" clip-rule="evenodd" d="M55.1463 51.7869L68.9328 0H82.7192L68.9328 51.7869H55.1463ZM41.3599 51.7869L34.4666 25.8934L27.5734 51.7869H41.3599ZM41.3599 0L48.2531 25.8934L55.1463 0H41.3599ZM0 51.7869L13.7865 0H27.5729L13.7865 51.7869H0Z" fill="#FEFEFE"/>
<path d="M91.3894 17.5009V9.6741H92.7489V12.8354H96.3205V9.6741H97.68V17.5009H96.3205V14.0297H92.7489V17.5009H91.3894ZM98.9969 13.5653C98.9969 12.3271 99.3798 11.336 100.146 10.5918C100.913 9.84756 101.893 9.47522 103.087 9.47522C104.296 9.47522 105.285 9.84756 106.054 10.5918C106.824 11.336 107.209 12.3271 107.209 13.5653C107.209 14.7813 106.822 15.7743 106.049 16.5444C105.276 17.3145 104.288 17.6998 103.087 17.6998C101.9 17.6998 100.922 17.3145 100.152 16.5444C99.382 15.7743 98.9974 14.7813 98.9974 13.5653H98.9969ZM100.475 13.5653C100.475 14.4057 100.72 15.0963 101.209 15.6379C101.698 16.1795 102.327 16.4505 103.097 16.4505C103.874 16.4505 104.507 16.1795 104.997 15.6379C105.486 15.0963 105.73 14.4053 105.73 13.5653C105.73 12.7471 105.487 12.0654 105.002 11.52C104.516 10.9747 103.882 10.7018 103.097 10.7018C102.32 10.7018 101.689 10.9743 101.204 11.52C100.718 12.0654 100.476 12.7471 100.476 13.5653H100.475ZM108.525 17.5009V9.6741H111.503C112.151 9.6741 112.703 9.83598 113.16 10.1607C113.617 10.4849 113.845 10.9789 113.845 11.6421C113.845 12.0695 113.727 12.4307 113.489 12.7254C113.252 13.02 112.928 13.23 112.518 13.3558V13.378C113.015 13.4441 113.414 13.6398 113.716 13.964C114.018 14.2882 114.169 14.7082 114.169 15.2244C114.169 15.6295 114.088 15.9852 113.926 16.291C113.764 16.5967 113.543 16.8344 113.262 17.0042C112.982 17.1739 112.676 17.2988 112.345 17.3802C112.015 17.4612 111.658 17.5019 111.277 17.5019H108.525L108.525 17.5009ZM109.884 10.8239V12.8581H111.093C111.546 12.8581 111.892 12.7661 112.129 12.5815C112.366 12.3975 112.485 12.1357 112.485 11.7966C112.485 11.4502 112.363 11.2014 112.118 11.0506C111.873 10.8993 111.492 10.8239 110.974 10.8239H109.884ZM109.884 14.0519V16.3294H111.104C112.241 16.3294 112.809 15.939 112.809 15.1578C112.809 14.7595 112.676 14.476 112.41 14.3063C112.144 14.137 111.726 14.0519 111.158 14.0519H109.885H109.884ZM115.14 13.5653C115.14 12.3271 115.523 11.336 116.289 10.5918C117.055 9.84756 118.035 9.47522 119.23 9.47522C120.438 9.47522 121.427 9.84756 122.197 10.5918C122.967 11.336 123.352 12.3271 123.352 13.5653C123.352 14.7813 122.965 15.7743 122.192 16.5444C121.418 17.3145 120.431 17.6998 119.23 17.6998C118.043 17.6998 117.064 17.3145 116.295 16.5444C115.525 15.7743 115.14 14.7813 115.14 13.5653H115.14ZM116.618 13.5653C116.618 14.4057 116.863 15.0963 117.351 15.6379C117.84 16.1795 118.47 16.4505 119.24 16.4505C120.017 16.4505 120.65 16.1795 121.139 15.6379C121.628 15.0963 121.873 14.4053 121.873 13.5653C121.873 12.7471 121.63 12.0654 121.145 11.52C120.659 10.9747 120.025 10.7018 119.24 10.7018C118.463 10.7018 117.832 10.9743 117.347 11.52C116.861 12.0654 116.618 12.7471 116.618 13.5653H116.618ZM131.218 10.669L130.182 11.5094C129.995 11.2439 129.742 11.0432 129.421 10.9072C129.101 10.7707 128.776 10.7028 128.445 10.7028C127.668 10.7028 127.033 10.9752 126.54 11.521C126.047 12.0663 125.801 12.748 125.801 13.5663C125.801 14.421 126.037 15.1157 126.508 15.6499C126.979 16.1846 127.606 16.4515 128.39 16.4515C129.196 16.4515 129.815 16.149 130.246 15.5449L131.336 16.3298C130.624 17.2438 129.638 17.7007 128.379 17.7007C127.185 17.7007 126.207 17.3155 125.444 16.5453C124.682 15.7752 124.301 14.7822 124.301 13.5663C124.301 12.3355 124.691 11.3461 125.471 10.5982C126.252 9.85032 127.243 9.47615 128.444 9.47615C128.977 9.47615 129.5 9.57743 130.015 9.78002C130.529 9.9826 130.93 10.2796 131.218 10.6699V10.669ZM133.937 17.5009V10.8901H131.596V9.6741H137.638V10.8901H135.297V17.5009H133.937ZM138.523 17.5009V9.6741H139.883V15.4002H139.915L143.498 9.6741H144.965V17.5009H143.606V11.8188H143.584L140.012 17.5009H138.523ZM91.3894 31.0427V23.2159H94.3679C95.0153 23.2159 95.5675 23.3778 96.0244 23.7025C96.4813 24.0267 96.7097 24.5206 96.7097 25.1839C96.7097 25.6113 96.591 25.9725 96.3535 26.2671C96.116 26.5618 95.7923 26.7718 95.3824 26.8976V26.9198C95.879 26.9859 96.2781 27.1816 96.5801 27.5058C96.8822 27.83 97.0334 28.25 97.0334 28.7662C97.0334 29.1713 96.9522 29.527 96.7905 29.8327C96.6284 30.1385 96.4072 30.3762 96.1269 30.5459C95.8465 30.7157 95.5408 30.8406 95.2099 30.922C94.879 31.0029 94.5227 31.0436 94.1417 31.0436H91.3899L91.3894 31.0427ZM92.7489 24.3657V26.3999H93.9575C94.4108 26.3999 94.7561 26.3078 94.9932 26.1233C95.2306 25.9392 95.3494 25.6774 95.3494 25.3384C95.3494 24.992 95.227 24.7431 94.9823 24.5923C94.7376 24.4411 94.3566 24.3657 93.8387 24.3657H92.7489ZM92.7489 27.5937V29.8711H93.9683C95.1051 29.8711 95.6731 29.4808 95.6731 28.6996C95.6731 28.3013 95.5404 28.0178 95.274 27.848C95.0081 27.6788 94.5904 27.5937 94.0225 27.5937H92.7493H92.7489ZM98.0041 27.1071C98.0041 25.8689 98.387 24.8777 99.1536 24.1335C99.9198 23.3893 100.9 23.017 102.094 23.017C103.303 23.017 104.292 23.3893 105.062 24.1335C105.831 24.8777 106.216 25.8689 106.216 27.1071C106.216 28.3231 105.83 29.3161 105.056 30.0862C104.283 30.8563 103.295 31.2416 102.094 31.2416C100.907 31.2416 99.9288 30.8563 99.159 30.0862C98.3892 29.3161 98.0046 28.3231 98.0046 27.1071H98.0041ZM99.4823 27.1071C99.4823 27.9475 99.727 28.638 100.216 29.1797C100.705 29.7213 101.335 29.9923 102.104 29.9923C102.881 29.9923 103.514 29.7213 104.004 29.1797C104.493 28.638 104.738 27.947 104.738 27.1071C104.738 26.2889 104.495 25.6071 104.009 25.0618C103.523 24.5165 102.889 24.2436 102.104 24.2436C101.327 24.2436 100.696 24.516 100.211 25.0618C99.7252 25.6071 99.4827 26.2889 99.4827 27.1071H99.4823ZM114.082 24.2108L113.047 25.0512C112.86 24.7857 112.606 24.5849 112.286 24.4489C111.966 24.3125 111.64 24.2445 111.309 24.2445C110.532 24.2445 109.898 24.5169 109.404 25.0627C108.912 25.608 108.665 26.2898 108.665 27.108C108.665 27.9628 108.901 28.6575 109.372 29.1917C109.843 29.7263 110.471 29.9932 111.255 29.9932C112.061 29.9932 112.679 29.6907 113.111 29.0867L114.201 29.8716C113.488 30.7855 112.503 31.2425 111.244 31.2425C110.05 31.2425 109.071 30.8572 108.309 30.0871C107.546 29.317 107.165 28.324 107.165 27.108C107.165 25.8772 107.556 24.8879 108.336 24.14C109.116 23.3921 110.107 23.0179 111.309 23.0179C111.841 23.0179 112.364 23.1192 112.879 23.3218C113.393 23.5244 113.795 23.8213 114.082 24.2117V24.2108ZM116.802 31.0427V24.4319H114.46V23.2159H120.503V24.4319H118.161V31.0427H116.802ZM120.697 27.1071C120.697 25.8689 121.08 24.8777 121.846 24.1335C122.613 23.3893 123.593 23.017 124.787 23.017C125.996 23.017 126.985 23.3893 127.755 24.1335C128.524 24.8777 128.909 25.8689 128.909 27.1071C128.909 28.3231 128.523 29.3161 127.749 30.0862C126.976 30.8563 125.988 31.2416 124.787 31.2416C123.6 31.2416 122.622 30.8563 121.852 30.0862C121.082 29.3161 120.697 28.3231 120.697 27.1071H120.697ZM122.175 27.1071C122.175 27.9475 122.42 28.638 122.909 29.1797C123.398 29.7213 124.028 29.9923 124.797 29.9923C125.574 29.9923 126.207 29.7213 126.697 29.1797C127.186 28.638 127.43 27.947 127.43 27.1071C127.43 26.2889 127.187 25.6071 126.702 25.0618C126.216 24.5165 125.582 24.2436 124.797 24.2436C124.02 24.2436 123.389 24.516 122.904 25.0618C122.418 25.6071 122.176 26.2889 122.176 27.1071H122.175ZM134.38 31.0427V27.9808C133.811 28.1427 133.232 28.2241 132.642 28.2241C131.786 28.2241 131.153 28.0455 130.743 27.688C130.333 27.3305 130.128 26.7722 130.128 26.0132V23.2163H131.487V25.6927C131.487 26.1497 131.599 26.485 131.822 26.6987C132.045 26.9124 132.408 27.0192 132.912 27.0192C133.552 27.0192 134.041 26.9494 134.379 26.8092V23.2163H135.739V31.0432H134.379L134.38 31.0427ZM137.423 31.0427V23.2159H138.782V26.3772H142.354V23.2159H143.713V31.0427H142.354V27.5715H138.782V31.0427H137.423ZM145.03 27.1071C145.03 25.8689 145.413 24.8777 146.18 24.1335C146.946 23.3893 147.926 23.017 149.12 23.017C150.329 23.017 151.318 23.3893 152.088 24.1335C152.857 24.8777 153.242 25.8689 153.242 27.1071C153.242 28.3231 152.856 29.3161 152.082 30.0862C151.309 30.8563 150.321 31.2416 149.12 31.2416C147.933 31.2416 146.955 30.8563 146.185 30.0862C145.415 29.3161 145.031 28.3231 145.031 27.1071H145.03ZM146.508 27.1071C146.508 27.9475 146.753 28.638 147.242 29.1797C147.731 29.7213 148.361 29.9923 149.13 29.9923C149.907 29.9923 150.54 29.7213 151.03 29.1797C151.519 28.638 151.763 27.947 151.763 27.1071C151.763 26.2889 151.521 25.6071 151.035 25.0618C150.549 24.5165 149.915 24.2436 149.13 24.2436C148.353 24.2436 147.722 24.516 147.237 25.0618C146.751 25.6071 146.509 26.2889 146.509 27.1071H146.508ZM154.558 31.0427V23.2159H155.918V28.9419H155.95L159.533 23.2159H161V31.0427H159.64V25.3606H159.619L156.047 31.0427H154.558ZM157.731 22.597C157.263 22.597 156.871 22.4606 156.555 22.1881C156.238 21.9152 156.051 21.5397 155.993 21.0605L156.717 20.9167C156.753 21.1674 156.862 21.3662 157.046 21.5138C157.229 21.6613 157.458 21.7349 157.731 21.7349C158.005 21.7349 158.233 21.6613 158.417 21.5138C158.6 21.3662 158.71 21.1674 158.746 20.9167L159.479 21.0605C159.415 21.5392 159.226 21.9152 158.913 22.1881C158.6 22.4606 158.206 22.597 157.731 22.597H157.731ZM91.5294 44.6622C91.1624 44.6622 90.8608 44.6252 90.6233 44.5516L90.7637 43.3245C90.9149 43.3763 91.0693 43.4018 91.2278 43.4018C91.7673 43.4018 92.1574 43.0776 92.3985 42.4291C92.6396 41.7806 92.7601 40.6345 92.7601 38.9912V36.7581H98.0154V44.5849H96.656V37.9741H94.0663V39.1789C94.0663 41.1026 93.8704 42.4971 93.478 43.3629C93.0857 44.2288 92.4369 44.6617 91.5303 44.6617L91.5294 44.6622ZM99.6981 44.5849V36.7581H104.759V37.9741H101.057V39.9639H104.565V41.1354H101.057V43.3463H104.953V44.5845H99.6976L99.6981 44.5849ZM106.281 44.5849V36.7581H107.64V39.9194H111.212V36.7581H112.571V44.5849H111.212V41.1137H107.64V44.5849H106.281ZM115.798 44.5849V37.9741H113.457V36.7581H119.499V37.9741H117.158V44.5849H115.798ZM126.815 44.5849V36.7581H128.175V44.5849H126.815ZM120.384 44.5849V36.7581H121.743V39.8644H122.877C123.74 39.8644 124.436 40.0596 124.965 40.4504C125.494 40.8408 125.758 41.4305 125.758 42.2191C125.758 43.0003 125.494 43.59 124.965 43.9878C124.436 44.3856 123.747 44.5849 122.898 44.5849H120.384ZM121.743 43.4133H122.769C123.848 43.4133 124.387 43.0193 124.387 42.2307C124.387 41.8403 124.247 41.5434 123.967 41.3408C123.686 41.1382 123.287 41.0369 122.769 41.0369H121.743V43.4138V43.4133Z" fill="#FEFEFE"/>
</svg>
